<?xml version="1.0" encoding="utf-8"?>
<!-- Generator: Adobe Illustrator 28.5.0, SVG Export Plug-In . SVG Version: 9.03 Build 54727)  -->
<svg version="1.0" id="Laag_1" xmlns="http://www.w3.org/2000/svg" xmlns:xlink="http://www.w3.org/1999/xlink" x="0px" y="0px"
	 viewBox="0 0 300.5 320.3" style="enable-background:new 0 0 300.5 320.3;" xml:space="preserve">
<style type="text/css">
	.st0{fill:#FFFFFF;}
	.st1{fill:#BD1521;}
</style>
<path class="st0" d="M300.5,174.2c0,80-67.3,144.9-150.2,144.9S0,254.2,0,174.2V1.2h300.5V174.2z"/>
<g>
	<defs>
		<path id="SVGID_1_" d="M148.6,103c-26.1,21.6-30.2,59.8-9.7,86.4c7.2,12.9,4.4,29.5-7.4,39.3c-5.8,4.8-12.9,7.2-19.9,7.2
			c-9,0-18-3.9-24.2-11.4c0,0,0,0,0-0.1l-24.1,19.9c0,0,0,0,0.1,0.1c12.4,15,30.3,22.7,48.3,22.7c14,0,28.2-4.7,39.8-14.3
			c26.1-21.5,30.2-59.8,9.6-86.4c-7.2-12.9-4.4-29.5,7.4-39.3c5.8-4.8,12.9-7.2,19.9-7.2c9,0,18,3.9,24.2,11.4c0,0,0,0,0,0.1
			l24.1-19.9c0,0,0,0-0.1-0.1c-12.4-15-30.3-22.7-48.3-22.7C174.4,88.7,160.3,93.4,148.6,103"/>
	</defs>
	<use xlink:href="#SVGID_1_"  style="overflow:visible;fill:#F9B233;"/>
	<clipPath id="SVGID_00000071538075072672247210000000453786752013399427_">
		<use xlink:href="#SVGID_1_"  style="overflow:visible;"/>
	</clipPath>
</g>
<path class="st1" d="M58.6,237.5c-5.9-9.5-9.3-20.7-9.3-32.8c0-0.8,0.1-1.5,0.1-2.2c-0.1-0.7-0.1-1.4-0.1-2.1v-95.6V103l31.2,1.8
	l0,45.8c9.2-5.4,19.9-8.5,31.3-8.5c2.1,0,4.2,0.1,6.2,0.3c-1.4,10.8-0.2,22,3.6,32.6c-3.1-1-6.4-1.6-9.8-1.6
	c-17.3,0-31.3,14-31.3,31.3c0,4.5,0.9,8.7,2.6,12.5l-1,0.8L58.6,237.5"/>
<path class="st1" d="M143.3,96.6c4.3-3.5,9-6.5,13.9-8.9l0-36.4L126,49.4v1.8v66.3C130.3,109.7,136,102.6,143.3,96.6"/>
<path class="st1" d="M242,118.5l-23.7,19.6l-0.8,0.7c1.6,3.8,2.5,7.9,2.5,12.3c0,17.3-14,31.3-31.3,31.3c-3.5,0-6.8-0.6-9.9-1.6
	c3.8,10.6,5.1,21.7,3.7,32.6c2,0.2,4.1,0.4,6.2,0.4c34.6,0,62.6-28,62.6-62.6C251.2,139.2,247.8,128,242,118.5"/>
</svg>
